<?xml version="1.0" standalone="no"?>
<!DOCTYPE svg PUBLIC "-//W3C//DTD SVG 20010904//EN"
 "http://www.w3.org/TR/2001/REC-SVG-20010904/DTD/svg10.dtd">
<svg version="1.0" xmlns="http://www.w3.org/2000/svg"
 width="140.000000pt" height="140.000000pt" viewBox="0 0 140.000000 140.000000"
 preserveAspectRatio="xMidYMid meet">
<metadata>
Created by potrace 1.11, written by Peter Selinger 2001-2013
</metadata>
<g transform="translate(0.000000,140.000000) scale(0.100000,-0.100000)"
fill="#000000" stroke="none">
<path d="M593 1103 l-63 -34 0 -160 0 -161 -29 -29 c-29 -29 -30 -29 -150 -29
l-121 0 0 -60 0 -60 157 0 c138 0 162 2 199 21 80 38 84 53 84 318 0 127 -3
230 -7 230 -5 -1 -36 -17 -70 -36z"/>
<path d="M710 912 c0 -221 1 -230 23 -262 48 -71 60 -75 245 -75 l167 0 0 55
0 55 -128 5 c-173 7 -167 -1 -167 214 l0 162 -70 38 -70 37 0 -229z"/>
<path d="M643 375 c0 -38 2 -53 4 -32 2 20 2 52 0 70 -2 17 -4 1 -4 -38z"/>
<path d="M683 340 c0 -36 2 -50 4 -32 2 17 2 47 0 65 -2 17 -4 3 -4 -33z"/>
<path d="M795 350 c3 -5 8 -10 11 -10 2 0 4 5 4 10 0 6 -5 10 -11 10 -5 0 -7
-4 -4 -10z"/>
<path d="M729 298 c7 -10 25 -17 40 -17 l26 2 -25 4 c-14 3 -32 10 -40 16 -13
11 -13 10 -1 -5z"/>
<path d="M578 288 c6 -6 18 -8 28 -6 14 3 12 5 -9 10 -19 3 -25 2 -19 -4z"/>
</g>
</svg>
